<svg width="165" height="48" viewBox="0 0 165 48" fill="none" xmlns="http://www.w3.org/2000/svg">
<g clip-path="url(#clip0)">
<path d="M8.01944 17.5C8.6209 17.1 9.22236 16.8 9.92406 16.5C10.5255 16.2 11.2272 16.1 12.0292 16.1C14.2345 16.1 15.9386 16.9 17.1416 18.6C18.3445 20.3 19.0462 22.1 19.0462 24.1V38H11.0267V26.8C11.0267 26.2 10.9265 25.7 10.8262 25.2C10.726 24.7 10.2248 24.5 9.52309 24.5C9.02187 24.5 8.72114 24.7 8.52066 25C8.32017 25.4 8.21993 25.7 8.11968 26.2C8.11968 26.3 8.11968 26.3 8.11968 26.4C8.11968 26.4 8.11968 26.5 8.11968 26.6V38H0V8.5H8.01944V17.5Z" fill="#F26523"/>
<path d="M35.7867 30V38.3C35.3858 38.4 35.085 38.4 34.6841 38.4C34.2831 38.4 33.9824 38.4 33.5814 38.4C30.4738 38.4 27.7673 37.2 25.6622 34.9C23.5571 32.6 22.4544 29.9 22.4544 26.9C22.4544 23.9 23.5571 21.3 25.8627 19.2C28.1683 17.1 30.7746 16 33.6816 16C36.7892 16 39.3955 17.1 41.7011 19.3C43.9064 21.5 45.0091 24.1 45.0091 27.2V38H36.6889V28C36.6889 27.1 36.3882 26.4 35.887 25.7C35.3858 25 34.5838 24.6 33.6816 24.6C32.8797 24.6 32.178 24.9 31.5765 25.5C30.9751 26.1 30.5741 26.8 30.5741 27.6C30.5741 28.4 30.8748 29.1 31.376 29.7C31.9775 30.3 32.6792 30.6 33.4811 30.7C33.8821 30.7 34.2831 30.6 34.6841 30.5C35.085 30.4 35.486 30.2 35.7867 30Z" fill="#F26523"/>
<path d="M63.6543 25.3C62.5516 25.4 61.7497 25.6 61.3487 26.1C60.9477 26.6 60.647 27.4 60.5468 28.5C60.3463 31.5 59.3439 34 57.5395 35.8C55.7351 37.6 53.229 38.6 50.1215 38.6H48.1166V30C49.4198 30 50.4222 29.8 51.1239 29.3C51.8256 28.8 52.2266 27.8 52.2266 26.4C52.3268 23.4 53.0285 21.1 54.4319 19.4C55.7351 17.7 58.0407 16.8 61.2485 16.8H63.6543V25.3Z" fill="#F26523"/>
<path d="M74.681 17.5C75.2825 17.1 75.884 16.8 76.5857 16.5C77.1871 16.2 77.8888 16.1 78.6908 16.1C80.8961 16.1 82.6002 16.9 83.8032 18.6C85.0061 20.3 85.7078 22.1 85.7078 24.1V38H77.6883V26.8C77.6883 26.2 77.5881 25.7 77.4878 25.2C77.3876 24.7 76.8864 24.5 76.1847 24.5C75.6835 24.5 75.3827 24.7 75.1823 25C74.9818 25.4 74.8815 25.7 74.7813 26.2C74.7813 26.3 74.7813 26.3 74.7813 26.4C74.7813 26.4 74.7813 26.5 74.7813 26.6V38H66.7618V8.5H74.7813V17.5H74.681Z" fill="#F26523"/>
<path d="M98.4386 16.4H102.047V24.9H98.4386C98.4386 26.3 98.7394 27.4 99.2406 28.2C99.7418 29 100.744 29.4 102.248 29.4V38C98.8396 38 96.0328 36.9 93.7272 34.7999C91.4216 32.6999 90.3189 29.9 90.3189 26.4V8.19995H98.4386V16.4Z" fill="white"/>
<path d="M118.487 30V38.3C118.086 38.4 117.786 38.4 117.385 38.4C116.984 38.4 116.683 38.4 116.282 38.4C113.174 38.4 110.468 37.2 108.363 34.9C106.258 32.6 105.155 29.9 105.155 26.9C105.155 23.9 106.258 21.3 108.563 19.2C110.869 17.1 113.475 16 116.382 16C119.49 16 122.096 17.1 124.402 19.3C126.607 21.5 127.71 24.1 127.71 27.2V38H119.389V28C119.389 27.1 119.089 26.4 118.587 25.7C118.086 25 117.284 24.6 116.382 24.6C115.58 24.6 114.878 24.9 114.277 25.5C113.676 26.1 113.275 26.8 113.275 27.6C113.275 28.4 113.575 29.1 114.077 29.7C114.678 30.3 115.38 30.6 116.182 30.7C116.583 30.7 116.984 30.6 117.385 30.5C117.786 30.4 118.186 30.2 118.487 30Z" fill="white"/>
<path d="M144.049 29.1V36.5C143.448 36.7 142.947 36.9 142.345 37C141.844 37.1 141.242 37.2 140.641 37.2C137.734 37.2 135.428 36.1 133.824 34C132.12 31.9 131.318 29.5 131.318 26.8C131.318 23.9 132.421 21.4 134.626 19.2C136.832 17.1 139.438 16 142.245 16C145.352 16 147.959 17.1 150.264 19.2C152.47 21.3 153.673 24 153.673 27.1V35.9C153.673 39.2 152.47 42 150.064 44.4C147.658 46.8 144.751 48 141.543 48C140.841 48 140.14 47.9 139.538 47.8C138.837 47.7 138.235 47.5 137.533 47.2V39.8C137.934 40 138.436 40.2 138.937 40.4C139.438 40.6 139.939 40.6 140.44 40.6C141.744 40.6 142.947 40.1 143.949 39.2C144.951 38.3 145.453 37.2 145.453 35.8V26.9C145.453 26 145.252 25.2 144.751 24.6C144.25 23.9 143.548 23.6 142.546 23.6C141.744 23.6 141.142 23.9 140.541 24.5C139.939 25.1 139.639 25.8 139.639 26.6C139.639 27.4 139.939 28.1 140.44 28.7C141.042 29.3 141.744 29.6 142.546 29.6C142.746 29.6 142.947 29.6 143.147 29.5C143.348 29.5 143.448 29.4 143.648 29.3C143.748 29.3 143.849 29.2 143.949 29.2C143.949 29.3 144.049 29.2 144.049 29.1Z" fill="white"/>
<path d="M163.496 9.29987H161.391L161.792 6.99987H163.496C164.399 6.99987 165.1 6.29987 165.1 5.39987C165.1 4.49987 164.399 3.79987 163.496 3.79987H162.293L162.694 1.69987C162.895 0.899867 162.293 0.0998668 161.391 -0.100133C160.589 -0.300133 159.787 0.299867 159.587 1.19987L159.086 3.79987H155.978L156.379 1.69987C156.58 0.899867 155.978 0.0998668 155.076 -0.100133C154.274 -0.300133 153.472 0.299867 153.272 1.19987L152.77 3.79987H150.064C149.162 3.79987 148.46 4.49987 148.46 5.39987C148.46 6.29987 149.362 6.99987 150.264 6.99987H152.369L151.968 9.29987H150.264C149.362 9.29987 148.66 9.99987 148.66 10.8999C148.66 11.7999 149.362 12.4999 150.264 12.4999H151.467L151.066 14.5999C150.866 15.3999 151.467 16.1999 152.369 16.3999C152.971 16.5999 153.973 16.0999 154.174 15.0999L154.675 12.4999H157.782L157.381 14.5999C157.181 15.3999 157.782 16.1999 158.685 16.3999C159.286 16.5999 160.289 16.0999 160.489 15.0999L160.99 12.4999H163.697C164.599 12.4999 165.301 11.7999 165.301 10.8999C165 9.99987 164.298 9.29987 163.496 9.29987ZM158.183 9.29987H155.076L155.477 6.99987H158.584L158.183 9.29987Z" fill="#F26523"/>
</g>
<defs>
<clipPath id="clip0">
<rect width="165" height="48" fill="white"/>
</clipPath>
</defs>
</svg>
